# xmcd CD database file
#
# Track frame offsets:
#	150
#	18234
#	37091
#	93040
#	113284
#	131320
#	151274
#	166398
#	186146
#	208788
#	232643
#	250830
#	271322
#	289715
#	304675
#	321711
#	340615
#
# Disc length: 4795 seconds
#
# Revision: 9
# Processed by: cddbd v1.5.2PL0 Copyright (c) Steve Scherf et al.
# Submitted via: CDex 1.79
#
DISCID=d812b911
DTITLE=Eros Ramazzotti - e2 [CD 2)
DYEAR=2007
DGENRE=Latin
TTITLE0=Adesso Tu
TTITLE1=Cose Che Ho Visto 
TTITLE2=Musica E' 
TTITLE3=Dolce Barbara
TTITLE4=Taxi Story
TTITLE5=Cose De La Vita
TTITLE6=L'Aurora
TTITLE7=Piu' Bella Cosa 
TTITLE8=Dove C'E' Musica
TTITLE9=E Ancor Mi Chiedo
TTITLE10=Fuoco Nel Fuoco 
TTITLE11=L'Ombra Del Gigante
TTITLE12=Il Buio Ha I Tuoi Occhi 
TTITLE13=Un Attimo Di Pace
TTITLE14=Un'Emozione Per Sempre
TTITLE15=Solo Ieri 
TTITLE16=Esta Pasando Noviembre 
EXTD=YEAR: 2007
EXTT0=
EXTT1=
EXTT2=
EXTT3=
EXTT4=
EXTT5=
EXTT6=
EXTT7=
EXTT8=
EXTT9=
EXTT10=
EXTT11=
EXTT12=
EXTT13=
EXTT14=
EXTT15=
EXTT16=
PLAYORDER=
